<?xml version="1.0" encoding="UTF-8"?>
<svg width="800" height="500" viewBox="0 0 800 500" fill="none" xmlns="http://www.w3.org/2000/svg">
  <!-- Background -->
  <rect width="800" height="500" fill="#f8fafc"/>
  
  <!-- Dashboard Container -->
  <rect x="20" y="20" width="760" height="460" rx="12" fill="white" stroke="#e2e8f0"/>
  
  <!-- Header -->
  <rect x="20" y="20" width="760" height="60" rx="12" fill="url(#gradient1)"/>
  <text x="40" y="45" fill="white" font-family="Arial, sans-serif" font-size="16" font-weight="bold">DASYIN CRM</text>
  
  <!-- Navigation -->
  <text x="600" y="40" fill="rgba(255,255,255,0.9)" font-family="Arial, sans-serif" font-size="12">Dashboard</text>
  <text x="670" y="40" fill="rgba(255,255,255,0.9)" font-family="Arial, sans-serif" font-size="12">Participants</text>
  <text x="730" y="40" fill="rgba(255,255,255,0.9)" font-family="Arial, sans-serif" font-size="12">Scheduling</text>
  
  <!-- Stats Cards -->
  <rect x="40" y="100" width="160" height="80" rx="8" fill="white" stroke="#e2e8f0"/>
  <text x="120" y="125" text-anchor="middle" fill="#046BD2" font-family="Arial, sans-serif" font-size="24" font-weight="bold">127</text>
  <text x="120" y="145" text-anchor="middle" fill="#64748b" font-family="Arial, sans-serif" font-size="12">Active Participants</text>
  
  <rect x="220" y="100" width="160" height="80" rx="8" fill="white" stroke="#e2e8f0"/>
  <text x="300" y="125" text-anchor="middle" fill="#046BD2" font-family="Arial, sans-serif" font-size="24" font-weight="bold">23</text>
  <text x="300" y="145" text-anchor="middle" fill="#64748b" font-family="Arial, sans-serif" font-size="12">Care Workers</text>
  
  <rect x="400" y="100" width="160" height="80" rx="8" fill="white" stroke="#e2e8f0"/>
  <text x="480" y="125" text-anchor="middle" fill="#046BD2" font-family="Arial, sans-serif" font-size="24" font-weight="bold">89</text>
  <text x="480" y="145" text-anchor="middle" fill="#64748b" font-family="Arial, sans-serif" font-size="12">Shifts Today</text>
  
  <rect x="580" y="100" width="160" height="80" rx="8" fill="white" stroke="#e2e8f0"/>
  <text x="660" y="125" text-anchor="middle" fill="#046BD2" font-family="Arial, sans-serif" font-size="24" font-weight="bold">96%</text>
  <text x="660" y="145" text-anchor="middle" fill="#64748b" font-family="Arial, sans-serif" font-size="12">Compliance Rate</text>
  
  <!-- Main Chart Area -->
  <rect x="40" y="200" width="480" height="260" rx="8" fill="white" stroke="#e2e8f0"/>
  <text x="60" y="225" fill="#1e293b" font-family="Arial, sans-serif" font-size="14" font-weight="bold">Weekly Shift Overview</text>
  
  <!-- Chart Bars -->
  <rect x="80" y="360" width="40" height="60" fill="#046BD2" opacity="0.8"/>
  <rect x="140" y="340" width="40" height="80" fill="#046BD2" opacity="0.8"/>
  <rect x="200" y="320" width="40" height="100" fill="#046BD2" opacity="0.8"/>
  <rect x="260" y="380" width="40" height="40" fill="#046BD2" opacity="0.8"/>
  <rect x="320" y="300" width="40" height="120" fill="#046BD2" opacity="0.8"/>
  <rect x="380" y="350" width="40" height="70" fill="#046BD2" opacity="0.8"/>
  <rect x="440" y="330" width="40" height="90" fill="#046BD2" opacity="0.8"/>
  
  <!-- Sidebar -->
  <rect x="540" y="200" width="200" height="120" rx="8" fill="white" stroke="#e2e8f0"/>
  <text x="560" y="220" fill="#1e293b" font-family="Arial, sans-serif" font-size="12" font-weight="bold">Recent Activities</text>
  
  <text x="560" y="240" fill="#64748b" font-family="Arial, sans-serif" font-size="10">New participant added</text>
  <rect x="680" y="235" width="40" height="15" rx="7" fill="#dcfce7"/>
  <text x="700" y="244" text-anchor="middle" fill="#166534" font-family="Arial, sans-serif" font-size="8">Active</text>
  
  <text x="560" y="260" fill="#64748b" font-family="Arial, sans-serif" font-size="10">Shift completed</text>
  <rect x="680" y="255" width="40" height="15" rx="7" fill="#dcfce7"/>
  <text x="700" y="264" text-anchor="middle" fill="#166534" font-family="Arial, sans-serif" font-size="8">Done</text>
  
  <text x="560" y="280" fill="#64748b" font-family="Arial, sans-serif" font-size="10">Care plan updated</text>
  <rect x="680" y="275" width="40" height="15" rx="7" fill="#fef3c7"/>
  <text x="700" y="284" text-anchor="middle" fill="#92400e" font-family="Arial, sans-serif" font-size="8">Pending</text>
  
  <rect x="540" y="340" width="200" height="120" rx="8" fill="white" stroke="#e2e8f0"/>
  <text x="560" y="360" fill="#1e293b" font-family="Arial, sans-serif" font-size="12" font-weight="bold">Quick Stats</text>
  
  <text x="560" y="380" fill="#64748b" font-family="Arial, sans-serif" font-size="10">This Month</text>
  <text x="720" y="380" text-anchor="end" fill="#1e293b" font-family="Arial, sans-serif" font-size="10" font-weight="bold">$42,350</text>
  
  <text x="560" y="400" fill="#64748b" font-family="Arial, sans-serif" font-size="10">Hours Worked</text>
  <text x="720" y="400" text-anchor="end" fill="#1e293b" font-family="Arial, sans-serif" font-size="10" font-weight="bold">1,247</text>
  
  <text x="560" y="420" fill="#64748b" font-family="Arial, sans-serif" font-size="10">Avg Rating</text>
  <text x="720" y="420" text-anchor="end" fill="#1e293b" font-family="Arial, sans-serif" font-size="10" font-weight="bold">4.8/5</text>
  
  <!-- Gradients -->
  <defs>
    <linearGradient id="gradient1" x1="0%" y1="0%" x2="100%" y2="0%">
      <stop offset="0%" style="stop-color:#046BD2;stop-opacity:1" />
      <stop offset="100%" style="stop-color:#045CB4;stop-opacity:1" />
    </linearGradient>
  </defs>
</svg>